<?xml version="1.0" encoding="utf-8"?>
<!-- Generator: Adobe Illustrator 18.1.0, SVG Export Plug-In . SVG Version: 6.00 Build 0)  -->
<!DOCTYPE svg PUBLIC "-//W3C//DTD SVG 1.1//EN" "http://www.w3.org/Graphics/SVG/1.1/DTD/svg11.dtd">
<svg version="1.1" id="Layer_1" xmlns="http://www.w3.org/2000/svg" xmlns:xlink="http://www.w3.org/1999/xlink" x="0px" y="0px"
	 viewBox="0 0 67.2 67.2" enable-background="new 0 0 67.2 67.2" xml:space="preserve">
<g opacity="0.7">
	<g>
		<path fill="#CE5429" d="M35.2,0c0,0,13.8,21.4-1.5,33.6C45.1,26.2,56.6,18.3,35.2,0z"/>
		<path fill="#CE5429" d="M32,67.2c0,0-13.7-21.4,1.5-33.6C22.1,41,10.6,48.8,32,67.2z"/>
		<path fill="#CE5429" d="M8.8,56.3c0,0,5.4-24.9,24.9-22.7C20.4,30.8,6.7,28.2,8.8,56.3z"/>
		<path fill="#CE5429" d="M0,32c0,0,21.4-13.8,33.6,1.5C26.2,22.1,18.3,10.6,0,32z"/>
		<path fill="#CE5429" d="M11,8.6c0,0,24.9,5.4,22.7,24.8C36.5,20.2,39.1,6.5,11,8.6z"/>
		<path fill="#CE5429" d="M58.4,10.9c0,0-5.4,24.9-24.9,22.7C46.9,36.4,60.6,39,58.4,10.9z"/>
		<path fill="#CE5429" d="M67.2,35c0,0-21.4,13.8-33.6-1.5C41,44.9,48.9,56.4,67.2,35z"/>
		<path fill="#CE5429" d="M56.3,58.4c0,0-24.9-5.4-22.7-24.9C30.8,46.9,28.2,60.6,56.3,58.4z"/>
	</g>
</g>
</svg>
